<svg  viewBox="0 0 265 200" fill="none" xmlns="http://www.w3.org/2000/svg">
<g clip-path="url(#clip0_32_1335)">
<path d="M265 159.554L180.864 192.74L162.456 200L122.638 186.133L88.6562 174.298L85.8336 173.316L81.6975 162.848L65.2508 121.231L56.9957 100.338L54.5131 94.0584L52.7178 89.5134L48.7162 79.3872L42.2368 62.9932L56.3891 57.412L69.9055 52.0801L79.6209 48.2486L201.946 0L265 159.554Z" fill="#F2F2F2"/>
<path d="M6.10015 106.603C7.12184 106.382 8.18956 106.575 9.06842 107.141C9.94727 107.706 10.5653 108.598 10.7865 109.618C11.0077 110.639 10.8139 111.706 10.2479 112.584C9.68184 113.462 8.78986 114.079 7.76816 114.3C5.64059 114.76 0 111.951 0 111.951C0 111.951 3.97258 107.063 6.10015 106.603Z" fill="#FFCF62"/>
<path d="M7.0419 187.449C7.71078 186.646 8.6714 186.142 9.71243 186.047C10.7535 185.952 11.7896 186.274 12.593 186.942C13.3963 187.61 13.9011 188.57 13.9962 189.61C14.0913 190.65 13.7689 191.685 13.1 192.488C11.7071 194.159 5.53131 195.415 5.53131 195.415C5.53131 195.415 5.64902 189.12 7.0419 187.449Z" fill="#FFCF62"/>
<path d="M177.984 59.2431C171.634 48.5246 159.072 48.0251 159.072 48.0251C159.072 48.0251 146.831 46.4612 138.978 62.7857C131.659 78.0014 121.557 92.6925 137.352 96.2544L140.205 87.3833L141.972 96.9149C144.22 97.0765 146.477 97.115 148.73 97.0303C165.644 96.4847 181.753 97.1899 181.234 91.126C180.545 83.065 184.094 69.5565 177.984 59.2431Z" fill="#2F2E41"/>
<path d="M151.921 81.6762C154.109 86.5113 155.489 92.2747 156.313 98.6765L173.879 97.5797C169.84 91.8627 168.499 85.3007 170.036 77.8374L151.921 81.6762Z" fill="#FFB8B8"/>
<path opacity="0.2" d="M151.921 81.6762C154.109 86.5113 155.489 92.2747 156.313 98.6765L173.879 97.5797C169.84 91.8627 168.499 85.3007 170.036 77.8374L151.921 81.6762Z" fill="black"/>
<path d="M70.4211 173.735C70.4211 173.735 61.3297 178.6 65.9431 182.753C70.5565 186.907 76.6506 177.255 76.6506 177.255L70.4211 173.735Z" fill="#FFB8B8"/>
<path d="M181.564 159.549L181.422 166.195L181.118 180.556L180.864 192.74L162.456 200L122.638 186.133L125.258 171.601L127.373 159.867L128.317 154.613L176.075 148.032L181.564 159.549Z" fill="#2F2E41"/>
<path d="M181.564 159.549L181.421 166.195C164.525 165.762 138.335 161.687 127.373 159.867L128.317 154.613L176.074 148.032L181.564 159.549Z" fill="#3F3D56"/>
<path d="M160.43 86.3376C168.009 86.3376 174.153 80.1994 174.153 72.6276C174.153 65.0558 168.009 58.9177 160.43 58.9177C152.851 58.9177 146.707 65.0558 146.707 72.6276C146.707 80.1994 152.851 86.3376 160.43 86.3376Z" fill="#FFB8B8"/>
<path d="M186.779 166.952C186.779 166.952 188.425 181.759 178.545 180.662L176.898 165.855L168.115 157.081L143.413 156.533L125.298 173.533C125.298 173.533 124.749 155.984 126.945 154.339C129.141 152.694 134.081 148.855 134.081 148.855V146.113L119.26 115.951C119.26 115.951 128.043 97.8539 135.179 97.3055L144.511 96.7571C144.511 96.7571 147.804 95.1119 147.804 94.5635C147.804 94.0151 147.255 89.6279 150 90.7247C150 90.7247 150.247 85.0982 153.14 86.8146C153.14 86.8146 162.247 93.9438 171.491 87.1272C171.491 87.1272 175.8 86.3375 175.251 88.5311C174.702 90.7247 175.251 92.3699 176.349 92.3699C177.447 92.3699 182.387 94.0151 182.387 95.1119C182.387 95.3477 182.744 97.6181 183.304 101.035V101.04C185.34 113.494 190.072 141.177 190.072 141.177C190.072 141.177 195.012 148.307 186.779 166.952Z" fill="#FFCF62"/>
<path d="M123.102 113.209L119.26 115.951L84.1283 160.92L65.4647 175.726C65.4647 175.726 75.8944 174.081 73.6986 182.856L137.924 146.113L123.102 113.209Z" fill="#FFCF62"/>
<path d="M183.304 101.035V101.04C182.574 105.329 158.783 104.435 155.489 104.435C152.196 104.435 149.451 103.886 146.158 101.693C142.864 99.4991 144.511 96.7571 144.511 96.7571C144.511 96.7571 147.315 94.6232 147.315 94.0748C147.315 93.5264 146.766 89.1392 149.511 90.236C149.511 90.236 149.758 84.6094 152.651 86.3259C152.651 86.3259 162.247 93.9438 171.491 87.1272C171.491 87.1272 175.8 86.3375 175.251 88.5311C174.702 90.7247 175.251 92.3699 176.349 92.3699C177.447 92.3699 182.387 94.0151 182.387 95.1119C182.387 95.3477 182.744 97.6181 183.304 101.035Z" fill="#3F3D56"/>
<path d="M180.466 80.5794C180.466 80.5794 176.074 71.2566 171.683 75.6438C167.291 80.031 176.623 86.6118 176.623 86.6118L180.466 80.5794Z" fill="#FFB8B8"/>
<path d="M180.466 78.3858C180.466 78.3858 173.685 86.9471 171.586 87.602C171.586 87.602 177.721 111.838 185.406 118.419L189.798 140.903C189.798 140.903 208.461 133.226 204.07 120.612C204.026 120.486 203.982 120.361 203.939 120.236C200.272 109.732 195.212 99.7669 188.893 90.6068L180.466 78.3858Z" fill="#FFCF62"/>
<path opacity="0.2" d="M176.842 103.778L190.346 140.903L185.406 118.419L176.842 103.778Z" fill="black"/>
<path d="M175.177 58.2098L162.766 51.7153L145.627 54.3722L142.081 70.0184L150.908 69.6793L153.374 63.931V69.5845L157.447 69.4278L159.811 60.2764L161.288 70.0184L175.768 69.7233L175.177 58.2098Z" fill="#2F2E41"/>
<path d="M68.7058 180.448C60.1743 175.697 54.8632 169.21 52.9198 161.167C51.4769 155.196 51.8915 148.477 54.1521 141.197C55.828 135.829 58.3406 130.758 61.5974 126.172C78.8752 101.74 80.4346 85.8196 78.7003 76.7665C76.7989 66.8399 70.621 62.7173 70.5588 62.6768L70.8255 62.2671C70.8893 62.3085 77.2299 66.5269 79.1771 76.6549C80.2996 82.4937 79.7715 89.1515 77.6074 96.4433C74.914 105.518 69.6619 115.615 61.997 126.455C58.7699 130.999 56.2801 136.022 54.6193 141.341C50.9117 153.282 50.3872 169.686 68.944 180.021L68.7058 180.448Z" fill="#2F2E41"/>
<path d="M53.124 135.207C46.3982 131.461 46.5854 125.525 47.9269 121.205C48.5216 119.3 49.4135 117.5 50.5695 115.872C56.6224 107.312 57.1694 101.752 56.5625 98.5948C55.9032 95.1662 53.7884 93.7587 53.7672 93.7448L54.0338 93.3351C54.1277 93.3961 56.3447 94.8718 57.0428 98.5026C57.9518 103.231 55.9083 109.169 50.9691 116.154C49.8427 117.74 48.9737 119.493 48.3941 121.35C47.1063 125.497 46.9228 131.194 53.3622 134.78L53.124 135.207Z" fill="#2F2E41"/>
<path d="M83.3847 80.9597L83.1465 80.5328C89.5859 76.9465 89.4025 71.2496 88.1147 67.1022C87.5351 65.2458 86.6661 63.4923 85.5396 61.9064C80.6004 54.9218 78.5569 48.983 79.4659 44.2551C80.164 40.6242 82.381 39.1485 82.475 39.0875L82.7419 39.497C82.7205 39.5111 80.595 40.9372 79.9426 44.3665C79.3423 47.5221 79.8953 53.0776 85.9392 61.6243C87.0952 63.2522 87.9871 65.052 88.5819 66.9574C89.9233 71.2776 90.1106 77.2138 83.3847 80.9597Z" fill="#2F2E41"/>
<path d="M97.745 56.6453C97.2186 57.452 96.5384 58.1471 95.743 58.6911C94.9477 59.235 94.0529 59.6171 93.1097 59.8155C92.1666 60.0139 91.1935 60.0247 90.2461 59.8473C89.2988 59.6699 88.3957 59.3078 87.5884 58.7817C86.7812 58.2555 86.0856 57.5757 85.5414 56.7809C84.9972 55.9861 84.6151 55.0921 84.4169 54.1497C84.2186 53.2074 84.2082 52.2353 84.3861 51.2889C84.564 50.3425 84.9268 49.4405 85.4537 48.6342C87.6681 45.2433 98.8164 41.5883 98.8164 41.5883C98.8164 41.5883 99.9594 53.2545 97.745 56.6453Z" fill="#FFCF62"/>
<path d="M95.0545 33.92C94.5281 34.7266 93.8478 35.4218 93.0525 35.9657C92.2572 36.5097 91.3624 36.8918 90.4192 37.0902C89.476 37.2886 88.5029 37.2994 87.5556 37.122C86.6082 36.9446 85.7051 36.5825 84.8979 36.0564C84.0906 35.5302 83.3951 34.8504 82.8509 34.0556C82.3067 33.2608 81.9246 32.3667 81.7263 31.4244C81.5281 30.4821 81.5176 29.51 81.6955 28.5636C81.8734 27.6172 82.2362 26.7151 82.7632 25.9089C84.9776 22.518 96.1258 18.863 96.1258 18.863C96.1258 18.863 97.2688 30.5291 95.0545 33.92Z" fill="#FFCF62"/>
<path d="M83.2274 117.177C81.5059 117.18 79.8347 116.597 78.4886 115.525C77.1425 114.453 76.2017 112.955 75.8208 111.278C75.44 109.601 75.6418 107.844 76.393 106.296C77.1443 104.749 78.4003 103.503 79.9545 102.763C83.6479 101.005 94.7258 103.579 95.1958 103.689L95.4928 103.759L95.36 104.034C95.1498 104.468 90.1702 114.683 86.4764 116.441C85.4619 116.925 84.3518 117.177 83.2274 117.177ZM83.8444 102.64C82.3419 102.64 81.0253 102.795 80.1649 103.205C78.4665 104.013 77.159 105.462 76.5302 107.233C75.9013 109.005 76.0025 110.953 76.8115 112.65C77.6206 114.347 79.0712 115.653 80.8443 116.281C82.6173 116.909 84.5676 116.808 86.266 116C89.4793 114.471 93.9484 105.767 94.7829 104.097C93.4477 103.801 87.9527 102.64 83.8444 102.64Z" fill="#2F2E41"/>
<path d="M68.2741 49.9193C68.9861 50.5679 69.5634 51.3503 69.9727 52.2218C70.3821 53.0933 70.6157 54.0368 70.6601 54.9985C70.7045 55.9602 70.5589 56.9211 70.2315 57.8266C69.9042 58.732 69.4015 59.5642 68.7522 60.2755C68.103 60.9869 67.3198 61.5635 66.4475 61.9725C65.5752 62.3815 64.6307 62.6149 63.6681 62.6592C62.7055 62.7036 61.7436 62.5581 60.8373 62.2311C59.931 61.904 59.098 61.4019 58.3859 60.7532C55.3913 58.0253 53.57 46.4456 53.57 46.4456C53.57 46.4456 65.2795 47.1914 68.2741 49.9193Z" fill="#FFCF62"/>
<path d="M51.1523 80.7084C52.5904 82.0184 53.4487 83.8455 53.5383 85.7876C53.628 87.7298 52.9417 89.628 51.6305 91.0647C50.3192 92.5013 48.4904 93.3588 46.5464 93.4484C44.6023 93.538 42.7022 92.8523 41.2642 91.5424C38.2696 88.8145 36.4482 77.2347 36.4482 77.2347C36.4482 77.2347 48.1577 77.9805 51.1523 80.7084Z" fill="#FFCF62"/>
<path d="M70.344 85.0265C67.8948 85.0265 63.2115 82.7096 62.9967 82.6025L62.7235 82.4665L62.9159 82.2298C63.0804 82.0275 66.9678 77.2696 69.1542 76.7966C70.2393 76.562 71.3733 76.7675 72.3067 77.3681C73.2401 77.9687 73.8964 78.9152 74.1313 79.9992C74.3662 81.0833 74.1604 82.2162 73.5593 83.1487C72.9581 84.0812 72.0107 84.7369 70.9256 84.9715C70.7342 85.0103 70.5392 85.0287 70.344 85.0265ZM63.4936 82.2999C64.6471 82.85 69.0647 84.8743 70.8222 84.4938C71.7799 84.286 72.6159 83.7068 73.1463 82.8834C73.6767 82.0601 73.8582 81.06 73.6508 80.1031C73.4434 79.1461 72.8641 78.3106 72.0403 77.7802C71.2165 77.2497 70.2156 77.0678 69.2576 77.2744C67.4996 77.6546 64.316 81.3226 63.4936 82.2999Z" fill="#2F2E41"/>
<path d="M44.0761 184.447C44.5914 183.539 45.4464 182.873 46.4534 182.594C47.4604 182.316 48.5368 182.448 49.4462 182.962C50.3555 183.476 51.0233 184.33 51.3029 185.336C51.5824 186.342 51.4507 187.417 50.9368 188.326C49.8647 190.219 44.0123 192.556 44.0123 192.556C44.0123 192.556 43.004 186.34 44.0761 184.447Z" fill="#FFCF62"/>
<path d="M31.2736 142.519C29.5853 142.492 27.9011 142.347 26.2331 142.085L25.9318 142.036L26.0452 141.753C26.1421 141.511 28.4406 135.815 30.388 134.715C30.8665 134.444 31.3937 134.271 31.9393 134.204C32.485 134.137 33.0384 134.179 33.5681 134.326C34.0978 134.472 34.5933 134.722 35.0264 135.06C35.4595 135.399 35.8217 135.819 36.0922 136.297C36.3628 136.775 36.5364 137.302 36.6033 137.847C36.6701 138.392 36.6288 138.945 36.4818 139.474C36.3347 140.003 36.0847 140.498 35.7462 140.931C35.4076 141.363 34.987 141.725 34.5085 141.996C33.8089 142.391 32.5768 142.519 31.2736 142.519ZM26.6177 141.648C27.8824 141.831 32.7021 142.454 34.2677 141.57C35.1213 141.088 35.7482 140.287 36.0105 139.343C36.2729 138.399 36.1491 137.39 35.6666 136.537C35.184 135.685 34.3822 135.058 33.4374 134.796C32.4926 134.534 31.4823 134.658 30.6288 135.14C29.0634 136.024 27.1127 140.471 26.6177 141.648Z" fill="#2F2E41"/>
</g>
<defs>
<clipPath id="clip0_32_1335">
<rect width="265" height="200" fill="white"/>
</clipPath>
</defs>
</svg>
