<svg width="320" height="270" viewBox="0 0 320 270" fill="none" xmlns="http://www.w3.org/2000/svg">
<g clip-path="url(#clip0_30_851)">
<path d="M260.615 130.312C260.615 134.106 260.455 137.861 260.136 141.578C259.885 144.48 259.542 147.355 259.108 150.205C258.647 153.222 258.081 156.202 257.411 159.147V159.15C256.974 161.088 256.493 163.01 255.969 164.916C254.449 170.457 252.56 175.89 250.312 181.178C249.824 182.328 249.319 183.471 248.799 184.605C246.83 188.902 244.625 193.087 242.195 197.141C235.38 208.525 226.873 218.806 216.965 227.632C215.893 228.585 214.806 229.523 213.704 230.445C190.312 249.987 160.788 260.671 130.307 260.624C58.3397 260.624 0 202.282 0 130.312C0 58.3417 58.3397 -3.69632e-05 130.307 -3.69632e-05C159.738 -0.046444 188.31 9.91585 211.332 28.2512C212.411 29.1063 213.477 29.9807 214.529 30.8744C219.662 35.2282 224.453 39.9705 228.859 45.0594H228.862C249.384 68.7159 260.661 98.9943 260.615 130.312Z" fill="#F2F2F2"/>
<path d="M38.4665 152.822C26.0532 145.433 16.6842 131.625 17.9005 117.231C29.2493 128.093 44.0743 134.591 59.7526 135.575C65.8004 135.932 72.5643 135.7 77.0161 139.809C79.7863 142.366 81.0757 146.215 81.2873 149.979C81.4987 153.743 80.7447 157.487 79.9947 161.181L80.2528 162.086C65.8074 162.141 50.8798 160.21 38.4665 152.822Z" fill="#E6E6E6"/>
<path d="M18.2033 117.215C23.177 128.089 31.4503 137.119 41.848 143.023C44.0833 144.274 46.4598 145.349 48.9851 145.847C51.4504 146.314 53.9958 146.113 56.3568 145.263C58.5741 144.515 60.7556 143.494 63.116 143.298C65.6041 143.092 67.9075 144.052 69.7172 145.733C71.9314 147.79 73.2745 150.52 74.4951 153.236C75.8504 156.251 77.2103 159.404 79.8088 161.572C80.1236 161.835 79.6976 162.308 79.3832 162.045C74.8624 158.273 74.1245 151.956 70.5107 147.513C68.8245 145.44 66.5033 143.863 63.7458 143.904C61.3345 143.941 59.084 144.992 56.8455 145.769C54.495 146.584 52.1404 146.967 49.6589 146.608C47.1205 146.241 44.697 145.257 42.4396 144.069C37.3406 141.335 32.703 137.817 28.6969 133.643C24.0983 128.904 20.3441 123.414 17.5968 117.41C17.4269 117.038 18.0345 116.846 18.2033 117.215H18.2033Z" fill="white"/>
<path d="M38.388 141.319C37.1607 142.929 35.401 144.05 33.4232 144.483C31.4455 144.915 29.3784 144.631 27.5911 143.68C27.2302 143.486 27.5141 142.916 27.8756 143.11C29.5382 143.998 31.4638 144.263 33.3046 143.857C35.1455 143.451 36.7805 142.399 37.9144 140.893C38.1612 140.566 38.6334 140.994 38.388 141.319L38.388 141.319Z" fill="white"/>
<path d="M55.2824 145.79C54.7658 141.684 52.7206 137.924 49.5546 135.258C49.2407 134.994 49.6666 134.521 49.9801 134.785C53.2696 137.564 55.39 141.482 55.9181 145.756C55.9682 146.164 55.3321 146.196 55.2824 145.79V145.79Z" fill="white"/>
<path d="M24.8878 128.606C25.4925 128.082 25.9575 127.415 26.2412 126.667C26.5249 125.919 26.6183 125.112 26.5131 124.319C26.4579 123.912 27.094 123.881 27.1488 124.285C27.261 125.162 27.1568 126.053 26.8452 126.88C26.5336 127.708 26.0241 128.446 25.3613 129.031C25.3035 129.091 25.2248 129.128 25.1413 129.132C25.0578 129.136 24.9757 129.109 24.9118 129.055C24.8494 128.998 24.8118 128.919 24.8073 128.835C24.8028 128.751 24.8318 128.669 24.8878 128.606V128.606Z" fill="white"/>
<path d="M58.0814 89.3435C58.1231 89.5964 58.1648 89.8493 58.2113 90.1046C58.7894 93.5018 59.6424 96.8464 60.7621 100.106C60.8447 100.359 60.9322 100.614 61.0218 100.865C63.8031 108.688 68.0125 115.927 73.4362 122.213C75.5967 124.712 77.9442 127.044 80.4585 129.187C83.9309 132.147 87.9313 135.08 90.1577 138.902C90.3944 139.298 90.6064 139.708 90.7924 140.13L81.3368 161.701C81.2907 161.739 81.2494 161.78 81.2032 161.819L80.8651 162.697C80.7277 162.596 80.5873 162.487 80.45 162.386C80.37 162.327 80.2922 162.264 80.2122 162.205C80.1596 162.165 80.107 162.124 80.0573 162.091C80.0397 162.077 80.0222 162.063 80.0096 162.052C79.9597 162.019 79.917 161.982 79.8722 161.951C79.0862 161.348 78.3031 160.739 77.5228 160.123C77.5179 160.121 77.5179 160.121 77.5151 160.114C71.5819 155.406 65.9896 150.162 61.3711 144.236C61.2322 144.057 61.0883 143.877 60.9537 143.689C58.8867 141.006 57.0424 138.159 55.4392 135.175C54.5667 133.539 53.7775 131.859 53.0747 130.143C51.2675 125.705 50.1695 121.011 49.821 116.232C49.1277 106.704 51.489 97.0614 57.6085 89.887C57.7652 89.7036 57.9198 89.5247 58.0814 89.3435Z" fill="#E6E6E6"/>
<path d="M58.3339 89.512C55.7587 101.189 56.928 113.38 61.6757 124.354C62.7071 126.699 63.9575 128.988 65.6737 130.906C67.361 132.764 69.5147 134.135 71.9112 134.878C74.1318 135.616 76.4887 136.114 78.4913 137.379C80.6021 138.712 81.8633 140.866 82.296 143.298C82.8255 146.273 82.2542 149.262 81.5939 152.165C80.8609 155.388 80.0484 158.725 80.8178 162.02C80.911 162.419 80.2859 162.541 80.1929 162.142C78.8543 156.408 82.0685 150.92 81.8579 145.197C81.7596 142.526 80.8559 139.869 78.6292 138.242C76.682 136.819 74.252 136.304 71.9971 135.576C69.6295 134.812 67.5188 133.7 65.7535 131.92C63.9476 130.098 62.6051 127.854 61.5182 125.545C59.0927 120.293 57.508 114.691 56.8223 108.946C56.0034 102.394 56.3114 95.7502 57.7328 89.3018C57.821 88.9028 58.4215 89.1155 58.3339 89.512Z" fill="white"/>
<path d="M59.939 120.91C57.9897 121.457 55.9096 121.293 54.0701 120.447C52.2306 119.602 50.7516 118.13 49.8971 116.295C49.7255 115.923 50.2954 115.638 50.4672 116.011C51.2598 117.721 52.6376 119.092 54.3522 119.876C56.0667 120.66 58.005 120.805 59.8171 120.285C60.211 120.173 60.3307 120.798 59.939 120.91H59.939Z" fill="white"/>
<path d="M70.7361 134.653C72.7959 131.063 73.427 126.829 72.5037 122.795C72.4119 122.395 73.0369 122.273 73.1286 122.673C74.0816 126.873 73.4158 131.278 71.2642 135.008C71.0589 135.364 70.5319 135.006 70.7361 134.653Z" fill="white"/>
<path d="M56.8138 102.631C57.612 102.577 58.3843 102.325 59.0613 101.898C59.7383 101.472 60.2987 100.884 60.6922 100.187C60.8929 99.8291 61.4197 100.187 61.2203 100.543C60.7819 101.31 60.1622 101.959 59.4153 102.432C58.6684 102.905 57.8171 103.188 56.9356 103.256C56.8531 103.269 56.7686 103.251 56.6992 103.204C56.6299 103.157 56.5809 103.086 56.5623 103.004C56.5465 102.922 56.5641 102.836 56.6112 102.766C56.6583 102.696 56.7311 102.648 56.8138 102.631V102.631Z" fill="white"/>
<path d="M90.265 30.2025L106.214 216.912L74.3159 219.311V32.578C78.1169 30.0628 83.5731 29.6693 90.265 30.2025Z" fill="#CCCCCC"/>
<path d="M168.992 30.2025L153.043 216.912L184.941 219.311V32.578C181.141 30.0628 175.684 29.6693 168.992 30.2025Z" fill="#CCCCCC"/>
<path d="M180.165 227.028H78.7528C77.1266 227.026 75.5676 226.379 74.4177 225.229C73.2679 224.079 72.6211 222.52 72.6193 220.894V35.3182C72.6211 33.692 73.2679 32.1329 74.4178 30.983C75.5676 29.8331 77.1266 29.1863 78.7528 29.1844H180.165C181.791 29.1863 183.35 29.8331 184.5 30.983C185.65 32.1329 186.297 33.692 186.299 35.3182V220.894C186.297 222.52 185.65 224.079 184.5 225.229C183.351 226.379 181.792 227.026 180.165 227.028ZM78.7528 31.2206C77.6664 31.2218 76.6249 31.6539 75.8568 32.4221C75.0886 33.1902 74.6565 34.2318 74.6553 35.3182V220.894C74.6565 221.98 75.0886 223.022 75.8568 223.79C76.6249 224.558 77.6664 224.99 78.7528 224.992H180.165C181.252 224.99 182.293 224.558 183.061 223.79C183.83 223.022 184.262 221.98 184.263 220.894V35.3182C184.262 34.2318 183.83 33.1903 183.061 32.4221C182.293 31.6539 181.252 31.2218 180.165 31.2206L78.7528 31.2206Z" fill="#CCCCCC"/>
<path d="M185.281 60.0656H73.6372V62.1018H185.281V60.0656Z" fill="#CCCCCC"/>
<path d="M185.281 94.001H73.6372V96.0372H185.281V94.001Z" fill="#CCCCCC"/>
<path d="M109.867 30.2025H107.831V122.846H109.867V30.2025Z" fill="#CCCCCC"/>
<path d="M151.087 30.2025H149.051V122.846H151.087V30.2025Z" fill="#CCCCCC"/>
<path d="M198.006 232.627H64.3053C61.8753 232.627 59.5449 231.662 57.8266 229.943C56.1084 228.225 55.1431 225.895 55.1431 223.465C55.1431 221.035 56.1084 218.704 57.8266 216.986C59.5449 215.267 61.8753 214.302 64.3053 214.302H198.006C200.436 214.302 202.767 215.267 204.485 216.986C206.203 218.704 207.168 221.035 207.168 223.465C207.168 225.895 206.203 228.225 204.485 229.943C202.767 231.662 200.436 232.627 198.006 232.627Z" fill="#CCCCCC"/>
<path d="M185.281 118.095H74.3159V124.882H185.281V118.095Z" fill="#CCCCCC"/>
<path d="M110.183 139.695L110.042 139.627C102.477 135.973 92.5715 135.976 77.9219 139.639L77.7655 139.678L77.7186 139.524C76.1689 134.442 74.4134 128.687 77.7113 125.855C77.7576 117.546 85.046 110.799 93.9983 110.799C102.949 110.799 110.236 117.543 110.285 125.85C115.191 129.601 112.853 135.144 110.262 139.56L110.183 139.695Z" fill="#2F2E41"/>
<path d="M156.676 121.903C156.541 122.576 156.259 123.211 155.851 123.764C155.444 124.317 154.92 124.773 154.316 125.102C153.713 125.43 153.045 125.622 152.36 125.664C151.674 125.707 150.988 125.598 150.349 125.346L123.616 152.211L121.231 143.869L147.782 118.922C148.276 117.876 149.136 117.048 150.2 116.595C151.264 116.141 152.457 116.094 153.553 116.461C154.649 116.829 155.573 117.586 156.149 118.589C156.724 119.591 156.912 120.771 156.676 121.903L156.676 121.903Z" fill="#FFB6B6"/>
<path d="M90.6071 147.766C90.6071 147.766 88.1817 153.262 94.1662 156.652C100.151 160.041 121.067 155.358 124.461 154.704C127.854 154.05 140.53 135.08 140.53 135.08L138.738 125.777L121.927 140.371L90.6071 147.766Z" fill="#F89D5B"/>
<path d="M86.1929 178.161L86.5322 184.609C86.5322 184.609 85.5306 190.32 86.3544 191.553C87.1719 192.779 109.481 192.934 109.481 192.934C109.481 192.934 110.955 184.987 112.224 178.032L86.1929 178.161Z" fill="#FFB6B6"/>
<path d="M150.333 263.414L154.997 262.472L153.662 243.633L146.779 245.023L150.333 263.414Z" fill="#FFB6B6"/>
<path d="M157.014 238.898L161.35 236.948L155.725 218.923L149.326 221.801L157.014 238.898Z" fill="#FFB6B6"/>
<path d="M160.791 228.741L152.627 233.364L132.493 201.009C118.359 210.532 104.538 215.092 90.6044 217.526C85.8937 218.365 81.0908 217.94 80.1864 213.145C80.1441 212.921 80.1104 212.695 80.0853 212.469C79.529 207.231 86.0436 200.518 86.8716 194.11L104.701 193.04L106.899 195.859L127.518 183.182C131.665 180.633 137.119 182.012 139.7 186.262C139.836 186.486 139.962 186.716 140.079 186.952L160.791 228.741Z" fill="#2F2E41"/>
<path d="M155.794 250.507L146.452 251.375L129.515 216.733C112.719 219.622 96.8734 220.547 83.1678 217.053C78.5274 215.886 75.6909 211.094 76.8323 206.35C76.8856 206.129 76.9473 205.909 77.0173 205.692C78.6576 200.687 82.9513 197.146 86.3342 191.642L111.044 192.017L108.284 201.54L132.288 198.434C137.115 197.809 141.524 201.303 142.135 206.238C142.167 206.499 142.188 206.761 142.198 207.023L155.794 250.507Z" fill="#2F2E41"/>
<path d="M95.8412 134.77C101.383 134.77 105.875 130.278 105.875 124.736C105.875 119.195 101.383 114.702 95.8412 114.702C90.2998 114.702 85.8076 119.195 85.8076 124.736C85.8076 130.278 90.2998 134.77 95.8412 134.77Z" fill="#FFB6B6"/>
<path d="M89.959 138.392L99.1589 139.475C99.5468 139.52 99.9109 139.686 100.2 139.948C100.49 140.211 100.69 140.557 100.774 140.938L102.237 147.634L111.357 158.374C111.357 158.374 114.632 164.515 113.404 171.475C112.176 178.435 111.636 183.606 111.636 183.606C111.636 183.606 87.1708 192.78 86.352 191.551C85.5333 190.323 85.2676 184.744 85.2676 184.744L81.9926 148.308C81.9926 148.308 85.677 142.167 87.7239 142.167C89.0449 142.123 88.8755 139.149 89.959 138.392Z" fill="#F89D5B"/>
<path d="M111.885 185.846C113.175 185.846 114.221 184.591 114.221 183.043C114.221 181.495 113.175 180.24 111.885 180.24C110.595 180.24 109.549 181.495 109.549 183.043C109.549 184.591 110.595 185.846 111.885 185.846Z" fill="#F89D5B"/>
<path d="M148.019 258.563L155.129 255L156.469 258.126L165.461 259.944C165.905 260.033 166.309 260.263 166.613 260.598C166.918 260.934 167.107 261.358 167.154 261.808C167.2 262.259 167.101 262.713 166.872 263.103C166.642 263.494 166.294 263.801 165.877 263.979L157.19 267.703L154.367 265.253L155.108 268.596L151.832 270L148.019 258.563Z" fill="#2F2E41"/>
<path d="M154.979 237.398L162.026 233.71L163.421 236.812L172.443 238.472C172.888 238.553 173.296 238.776 173.606 239.106C173.917 239.436 174.113 239.856 174.168 240.306C174.222 240.756 174.131 241.211 173.909 241.606C173.686 242.001 173.343 242.314 172.93 242.499L164.309 246.376L161.443 243.975L162.243 247.305L158.993 248.766L154.979 237.398Z" fill="#2F2E41"/>
<path d="M90.1087 121.589C87.4579 121.593 84.8707 120.777 82.7023 119.252L82.6299 119.202V119.113C82.6328 116.549 83.6527 114.091 85.4657 112.278C87.2788 110.464 89.7371 109.445 92.3011 109.442H96.3732C98.9373 109.445 101.396 110.464 103.209 112.278C105.022 114.091 106.042 116.549 106.045 119.113C106.042 119.7 105.81 120.263 105.399 120.681C104.987 121.1 104.429 121.341 103.842 121.354L90.3375 121.587C90.2613 121.588 90.1847 121.589 90.1087 121.589Z" fill="#2F2E41"/>
<path d="M106.723 117.256C108.022 116.506 108.238 114.451 107.208 112.666C106.177 110.88 104.289 110.04 102.99 110.79C101.692 111.54 101.475 113.595 102.506 115.38C103.536 117.166 105.425 118.005 106.723 117.256Z" fill="#2F2E41"/>
<path d="M86.4158 115.264C87.8735 113.806 88.1958 111.765 87.1357 110.705C86.0755 109.644 84.0343 109.967 82.5766 111.425C81.1189 112.882 80.7966 114.924 81.8567 115.984C82.9169 117.044 84.9581 116.722 86.4158 115.264Z" fill="#2F2E41"/>
<path d="M175.215 207.006H165.2C164.974 207.005 164.751 207.054 164.546 207.149C164.341 207.244 164.159 207.382 164.013 207.555C163.644 207.487 163.264 207.508 162.904 207.615C162.544 207.723 162.215 207.914 161.943 208.174C161.672 208.433 161.465 208.753 161.342 209.108C161.218 209.462 161.18 209.841 161.231 210.213C161.282 210.585 161.42 210.94 161.635 211.248C161.85 211.557 162.134 211.809 162.466 211.986C162.797 212.163 163.166 212.259 163.541 212.266C163.917 212.272 164.288 212.19 164.626 212.025L165.457 214.724C165.555 215.044 165.753 215.324 166.023 215.523C166.292 215.722 166.618 215.829 166.952 215.829H173.464C173.798 215.829 174.124 215.722 174.393 215.523C174.662 215.324 174.861 215.044 174.959 214.724L176.711 209.031C176.783 208.797 176.799 208.549 176.758 208.308C176.717 208.067 176.62 207.838 176.474 207.641C176.329 207.444 176.139 207.284 175.92 207.174C175.702 207.063 175.46 207.006 175.215 207.006ZM163.591 211.587C163.141 211.587 162.709 211.408 162.391 211.09C162.073 210.772 161.894 210.34 161.894 209.89C161.894 209.44 162.073 209.009 162.391 208.691C162.709 208.372 163.141 208.194 163.591 208.194C163.622 208.194 163.651 208.201 163.681 208.203C163.614 208.476 163.622 208.762 163.705 209.031L164.421 211.361C164.169 211.507 163.883 211.585 163.591 211.587Z" fill="#3F3D56"/>
<path d="M130.495 199.639C129.811 199.703 129.122 199.615 128.475 199.383C127.829 199.151 127.241 198.78 126.753 198.296C126.266 197.813 125.89 197.228 125.653 196.583C125.416 195.939 125.323 195.25 125.381 194.566L91.9764 176.664L99.2828 171.986L130.798 190.263C131.942 190.436 132.982 191.023 133.721 191.912C134.461 192.801 134.849 193.93 134.811 195.086C134.774 196.242 134.314 197.344 133.518 198.183C132.723 199.022 131.647 199.54 130.495 199.639Z" fill="#FFB6B6"/>
<path d="M86.7638 143.766C86.7638 143.766 80.8028 143.02 79.2728 149.725C77.7429 156.431 88.2301 175.125 89.8302 178.188C91.4303 181.252 113.239 187.952 113.239 187.952L121.637 183.566L102.834 171.649L86.7638 143.766Z" fill="#F89D5B"/>
<path d="M128.78 116.059H130.816C131.806 116.059 132.756 116.452 133.456 117.152C134.156 117.852 134.549 118.802 134.549 119.792H125.048C125.048 118.802 125.441 117.852 126.141 117.152C126.841 116.452 127.79 116.059 128.78 116.059Z" fill="#CCCCCC"/>
<path d="M64.2178 46.4119C75.358 46.4119 84.3889 37.3807 84.3889 26.2401C84.3889 15.0995 75.358 6.06827 64.2178 6.06827C53.0776 6.06827 44.0466 15.0995 44.0466 26.2401C44.0466 37.3807 53.0776 46.4119 64.2178 46.4119Z" fill="#FF6584"/>
<path d="M125.977 25.1889C120.639 19.5887 114.439 14.4799 107.099 11.7802C105.055 11.025 102.935 10.4922 100.776 10.1912C100.759 10.1888 100.743 10.1923 100.725 10.1909C100.69 10.1819 100.655 10.1749 100.619 10.17C97.5998 9.7854 94.5355 9.9704 91.5848 10.7154C90.1418 11.0776 88.734 11.568 87.3784 12.1808C86.018 12.8445 84.6998 13.5916 83.4314 14.4177C80.7467 16.0249 77.7908 17.1276 74.7095 17.6717C73.1628 17.9501 71.5963 18.1039 70.025 18.1314C68.6616 18.1588 67.3758 18.2062 66.0841 18.6987C64.7043 19.2176 63.4648 20.0519 62.4646 21.1349C61.4644 22.2179 60.7312 23.5197 60.3235 24.9364C60.2921 25.0626 60.3015 25.1954 60.3505 25.3159C60.3995 25.4363 60.4855 25.538 60.5961 25.6064C60.9455 25.8567 61.2862 26.1406 61.6533 26.3636C61.9799 26.5131 62.3287 26.6082 62.686 26.6453C63.2697 26.7684 63.8541 26.888 64.4393 27.004C66.595 27.4311 68.7597 27.8092 70.9334 28.1383C75.3318 28.8041 79.7539 29.2732 84.1998 29.5454C93.1061 30.0849 102.043 29.8163 110.901 28.7429C115.879 28.1399 120.823 27.2847 125.715 26.1805C125.814 26.1516 125.904 26.0975 125.976 26.0236C126.048 25.9497 126.1 25.8584 126.126 25.7586C126.152 25.6589 126.152 25.554 126.126 25.4542C126.1 25.3543 126.049 25.2629 125.977 25.1889Z" fill="#E6E6E6"/>
<path d="M65.1751 38.6759C63.1307 37.9207 61.0108 37.388 58.8523 37.087C58.8349 37.0846 58.8185 37.0881 58.8012 37.0867C58.7661 37.0777 58.7305 37.0707 58.6946 37.0658C55.6756 36.6812 52.6113 36.8662 49.6606 37.6112C48.2176 37.9733 46.8099 38.4637 45.4542 39.0766C44.0938 39.7403 42.7756 40.4874 41.5072 41.3135C38.8225 42.9206 35.8666 44.0234 32.7853 44.5674C31.2386 44.8459 29.6721 44.9997 28.1008 45.0272C26.7374 45.0546 25.4517 45.1019 24.1599 45.5945C22.7801 46.1134 21.5406 46.9476 20.5404 48.0306C19.5402 49.1136 18.807 50.4154 18.3993 51.8321C18.3679 51.9583 18.3773 52.0912 18.4263 52.2116C18.4753 52.332 18.5613 52.4338 18.6719 52.5022C19.0214 52.7524 19.362 53.0364 19.7291 53.2593C20.0557 53.4088 20.4045 53.504 20.7618 53.541C21.3455 53.6642 21.9299 53.7837 22.5151 53.8997C24.6708 54.3268 26.8356 54.705 29.0092 55.034C33.4076 55.6999 37.8297 56.1689 42.2756 56.4411C51.1819 56.9806 60.1188 56.712 68.9767 55.6386C73.9549 55.0356 78.8993 54.1804 83.7908 53.0762C83.8898 53.0473 83.9797 52.9932 84.0517 52.9193C84.1237 52.8454 84.1754 52.7541 84.2017 52.6544C84.2281 52.5546 84.2282 52.4497 84.202 52.3499C84.1759 52.2501 84.1244 52.1587 84.0526 52.0846C78.7143 46.4845 72.5145 41.3756 65.1751 38.6759Z" fill="#E6E6E6"/>
<path d="M210.638 189.054L195.126 168.675L182.886 175.596L208.822 206.396L210.638 189.054Z" fill="#3F3D56"/>
<path d="M246.369 155.926C246.714 164.467 248.037 172.939 250.312 181.178C249.824 182.328 249.319 183.471 248.799 184.605C246.83 188.902 244.625 193.087 242.195 197.141C235.38 208.525 226.873 218.806 216.965 227.632C215.893 228.585 214.806 229.523 213.704 230.445C207.423 221.785 204.033 212.229 202.692 202.394C202.523 201.145 202.384 199.883 202.278 198.627V198.62C202.021 195.569 201.938 192.505 202.031 189.444C202.034 189.2 202.041 188.952 202.051 188.705C202.17 185.433 202.465 182.155 202.91 178.907V178.904C202.96 178.531 203.011 178.157 203.069 177.784C203.232 176.664 203.415 175.544 203.615 174.431C204.781 168.012 206.407 161.685 208.482 155.499V155.495C208.539 155.315 208.597 155.139 208.661 154.963C208.885 154.291 209.113 153.626 209.347 152.96C209.361 152.908 209.38 152.857 209.401 152.808C209.703 151.939 210.012 151.077 210.328 150.222C210.412 149.984 210.501 149.747 210.592 149.509C210.949 148.556 211.312 147.609 211.682 146.676C211.797 146.377 211.916 146.078 212.035 145.783C212.126 145.556 212.214 145.328 212.309 145.104V145.101C212.849 143.767 213.395 142.46 213.948 141.178C215.499 137.574 217.094 134.184 218.648 131.059L218.652 131.055C225.103 118.116 230.966 109.713 230.966 109.713L252.986 116.84C250.36 121.499 248.327 128.371 247.214 136.478C246.357 142.922 246.074 149.429 246.369 155.923L246.369 155.926Z" fill="#3F3D56"/>
<path d="M209.771 153.853C209.642 153.551 209.496 153.256 209.347 152.96C208.573 151.462 207.576 150.089 206.391 148.888C206.215 148.708 206.032 148.528 205.842 148.359C203.798 146.476 201.312 145.139 198.614 144.471C195.917 143.803 193.095 143.826 190.408 144.538L190.395 144.544L190.293 144.572L190.317 144.687C190.418 145.225 190.566 145.753 190.758 146.265C190.809 146.404 190.866 146.536 190.924 146.669C190.948 146.73 190.978 146.784 191.005 146.845C191.005 146.845 191.002 146.849 191.009 146.849C191.009 146.852 191.012 146.855 191.012 146.859C191.077 146.984 191.138 147.113 191.206 147.236C191.067 147.103 190.934 146.967 190.805 146.828C190.68 146.699 190.564 146.564 190.449 146.428C190.053 145.967 189.696 145.474 189.38 144.955L189.326 144.863L189.231 144.901C187.95 145.345 186.729 145.943 185.593 146.682L185.471 146.764C184.604 147.333 183.627 147.714 182.603 147.881C181.579 148.048 180.532 147.998 179.529 147.734C177.947 147.327 176.299 147.252 174.687 147.516C173.075 147.779 171.536 148.375 170.166 149.265C169.259 149.856 168.439 150.571 167.73 151.389C167.669 151.461 167.608 151.535 167.547 151.606C167.418 151.763 167.296 151.922 167.177 152.085C165.901 153.79 165.118 155.812 164.913 157.932L164.907 158.01L164.971 158.054C166.119 158.841 167.418 159.382 168.785 159.642C167.926 159.762 167.057 159.784 166.193 159.707H166.189C165.797 159.674 165.408 159.62 165.022 159.544L164.951 159.53H164.947L164.859 159.513L164.873 159.676C164.974 161.75 165.627 163.759 166.763 165.496L166.797 165.544C166.809 165.561 166.821 165.579 166.831 165.598C167.312 166.334 167.713 167.121 168.025 167.943C168.819 169.986 168.993 172.218 168.527 174.36C168 176.651 168.176 179.048 169.03 181.238C169.885 183.428 171.379 185.31 173.319 186.638C175.023 187.81 177.008 188.507 179.071 188.657C179.352 188.681 179.637 188.694 179.923 188.694C181.554 188.699 183.169 188.363 184.663 187.707L184.717 187.687L184.731 187.625C185.018 186.698 185.422 185.811 185.932 184.985C185.765 185.636 185.681 186.305 185.681 186.977V187.201L185.875 187.089C186.041 186.991 186.211 186.886 186.363 186.787C187.28 186.189 188.11 185.467 188.83 184.643C189.112 184.317 189.397 184.001 189.696 183.686L189.699 183.682C190.279 183.065 190.893 182.46 191.531 181.884C192.889 180.665 194.341 179.556 195.875 178.568C197.408 177.584 199.01 176.713 200.67 175.962H200.673C200.86 175.874 201.05 175.789 201.237 175.707C202.063 175.348 202.859 174.921 203.615 174.431C203.643 174.414 203.666 174.401 203.69 174.384C206.971 172.236 209.382 168.993 210.496 165.234C211.609 161.474 211.353 157.441 209.771 153.853L209.771 153.853Z" fill="#FFCF62"/>
<path opacity="0.15" d="M169.087 179.178C168.994 179.591 168.924 180.008 168.876 180.428C168.245 178.432 168.153 176.304 168.611 174.26C168.682 173.947 168.735 173.631 168.776 173.313C169.403 175.205 169.51 177.231 169.087 179.178Z" fill="black"/>
<path opacity="0.15" d="M169.343 164.458C168.338 164.597 167.319 164.602 166.312 164.472C166.049 163.975 165.821 163.46 165.631 162.93C166.752 163.686 168.015 164.206 169.343 164.458Z" fill="black"/>
<path opacity="0.15" d="M166.232 159.598C165.861 160.547 165.614 161.54 165.498 162.552C165.189 161.588 165.006 160.587 164.955 159.576L164.946 159.413L165.106 159.444C165.479 159.514 165.854 159.565 166.232 159.598Z" fill="black"/>
<path opacity="0.15" d="M170.254 149.164C171.622 148.273 173.16 147.676 174.771 147.412C176.382 147.148 178.031 147.223 179.611 147.632C180.615 147.897 181.663 147.948 182.687 147.781C183.711 147.614 184.689 147.233 185.556 146.663L185.679 146.582C186.813 145.841 188.034 145.241 189.315 144.796L189.412 144.762L189.466 144.851C189.972 145.688 190.585 146.455 191.29 147.133C190.862 146.335 190.562 145.475 190.402 144.584L190.379 144.467L190.494 144.436C193.014 143.769 195.655 143.707 198.203 144.256C200.751 144.804 203.133 145.947 205.155 147.592C207.177 149.236 208.782 151.335 209.838 153.718C210.895 156.101 211.373 158.699 211.234 161.302C210.699 159.18 209.749 157.185 208.438 155.434C207.127 153.682 205.482 152.207 203.597 151.096C201.712 149.985 199.626 149.258 197.458 148.959C195.29 148.66 193.085 148.795 190.97 149.354L190.854 149.385L190.877 149.502C191.038 150.393 191.337 151.253 191.766 152.051C191.061 151.373 190.448 150.606 189.941 149.769L189.888 149.68L189.79 149.714C188.51 150.159 187.289 150.759 186.154 151.5L186.032 151.581C185.165 152.151 184.187 152.532 183.163 152.699C182.138 152.866 181.09 152.815 180.087 152.55C177.46 151.868 174.678 152.119 172.215 153.259C169.752 154.399 167.761 156.359 166.581 158.803C166.056 158.55 165.547 158.266 165.056 157.951L164.99 157.909L164.998 157.831C165.166 156.084 165.727 154.398 166.637 152.897C167.547 151.397 168.783 150.121 170.254 149.164Z" fill="black"/>
<path d="M296.409 62.4547L296.086 62.2409L295.852 62.5463C294.04 64.828 292.598 67.3806 291.58 70.1105C291.72 66.9656 292.27 63.8524 293.215 60.8496L293.317 60.534L293.025 60.3677C289.229 58.2176 285.183 56.5401 280.979 55.3724L280.521 55.2502C277.298 54.3661 274.299 52.8126 271.717 50.6913C269.136 48.5699 267.031 45.9282 265.539 42.9385C262.072 36.0769 256.595 30.4359 249.838 26.7682C243.082 23.1004 235.368 21.5804 227.726 22.4109H227.722C227.641 22.4177 227.556 22.4279 227.475 22.4381C227.336 22.4517 227.2 22.4686 227.064 22.4856C226.786 22.5229 226.514 22.5602 226.243 22.601C226.012 22.6349 225.778 22.6722 225.547 22.713C225.425 22.7299 225.306 22.7503 225.187 22.774C225.069 22.7944 224.947 22.8148 224.828 22.8385H224.824C222.546 23.2695 220.313 23.9114 218.153 24.7559H218.15V24.7592L217.603 24.973C217.04 25.2038 216.481 25.4481 215.927 25.706C215.801 25.7637 215.679 25.8248 215.554 25.8825C215.52 25.8995 215.482 25.9164 215.448 25.9368C215.092 26.1065 214.739 26.2829 214.39 26.4696C214.339 26.4933 214.288 26.5205 214.237 26.5476L213.911 26.7207C213.195 27.1076 212.492 27.5182 211.8 27.9526C211.743 27.9865 211.688 28.0204 211.631 28.0578C211.57 28.0985 211.505 28.1392 211.444 28.1799C211.407 28.2003 211.369 28.2274 211.332 28.2512C211.227 28.3157 211.125 28.3835 211.023 28.4548C210.82 28.5872 210.616 28.7229 210.416 28.862C210.209 29.0012 210.005 29.1471 209.802 29.293L209.598 29.4389L209.635 29.6901C209.669 29.8971 209.7 30.1041 209.737 30.3077C209.771 30.5113 209.805 30.7115 209.842 30.9117C209.9 31.2477 209.965 31.5803 210.029 31.9026C210.073 32.1164 210.114 32.3268 210.161 32.5338C210.206 32.7476 210.253 32.9614 210.304 33.1752C210.402 33.6164 210.508 34.044 210.62 34.4648C210.674 34.6752 210.732 34.8856 210.793 35.0926C210.827 35.2181 210.86 35.3437 210.898 35.4659C210.925 35.5507 210.952 35.6355 210.979 35.7204C210.986 35.7475 210.993 35.7781 211.003 35.8086C211.011 35.8374 211.02 35.8657 211.03 35.8934C211.067 36.019 211.105 36.1412 211.142 36.26C211.162 36.3244 211.183 36.3889 211.207 36.45C211.254 36.5959 211.305 36.7452 211.356 36.8878C211.41 37.0506 211.468 37.2135 211.526 37.373C211.539 37.4138 211.553 37.4511 211.566 37.4918C211.576 37.5224 211.587 37.5529 211.6 37.5834C211.614 37.6174 211.627 37.6547 211.641 37.6886C211.699 37.8413 211.756 37.9974 211.817 38.1502C211.838 38.2045 211.858 38.2621 211.882 38.3164C212.432 39.6989 213.108 41.028 213.901 42.2869C213.022 41.5335 212.176 40.7349 211.363 39.891C210.107 38.5863 208.95 37.1899 207.901 35.7136C207.817 35.5982 207.732 35.4794 207.654 35.3607C207.494 35.1333 207.338 34.9059 207.185 34.6752C207.023 34.4376 206.866 34.1899 206.714 33.9456C206.612 33.7827 206.51 33.6164 206.412 33.4535C206.313 33.2974 206.222 33.1447 206.133 32.9886L205.869 32.5338H205.865V32.5372L205.492 32.9037C205.343 33.0497 205.193 33.1956 205.048 33.3415C200.487 37.9306 197.183 43.616 195.454 49.8511L195.403 50.0377L195.353 50.2311C195.254 50.5773 195.156 50.9132 195.051 51.256V51.2594C194.949 51.5987 194.84 51.9381 194.725 52.2707C194.62 52.5863 194.511 52.8985 194.396 53.2107C194.358 53.3159 194.318 53.4211 194.273 53.5263C194.202 53.7299 194.124 53.9301 194.046 54.1337C194.009 54.2253 193.971 54.3204 193.934 54.412C193.842 54.636 193.751 54.8599 193.659 55.0805C193.646 55.1144 193.629 55.1518 193.612 55.1857C193.585 55.2536 193.554 55.3214 193.527 55.3859C193.456 55.5488 193.381 55.7151 193.31 55.878C193.259 55.9832 193.211 56.0918 193.164 56.197C193.143 56.2445 193.12 56.292 193.099 56.3395C192.974 56.611 192.845 56.8791 192.709 57.1438C192.556 57.456 192.4 57.7682 192.234 58.0736C192.088 58.3587 191.935 58.637 191.776 58.9152C191.501 59.4073 191.213 59.896 190.914 60.3711C190.799 60.5543 190.683 60.7376 190.564 60.9208C190.537 60.9649 190.51 61.009 190.483 61.0498C190.385 61.2093 190.283 61.362 190.178 61.5181C190.106 61.6233 190.035 61.7285 189.964 61.8303C189.845 62.0135 189.719 62.19 189.591 62.3631C189.557 62.4174 189.519 62.4683 189.482 62.5192C189.292 62.7839 189.102 63.0418 188.908 63.2997C188.902 63.3031 188.902 63.3065 188.898 63.3099C188.891 63.3099 188.892 63.3133 188.888 63.3167C188.803 63.4286 188.718 63.5406 188.63 63.6492C188.515 63.8087 188.389 63.9648 188.264 64.1175C188.06 64.3754 187.846 64.6367 187.629 64.8913C187.622 64.898 187.619 64.9048 187.612 64.9082C186.488 66.2293 185.27 67.4678 183.968 68.614C183.944 68.6343 183.927 68.6547 183.903 68.6717C183.72 68.8312 183.537 68.9907 183.347 69.1468C183.269 69.2112 183.191 69.2757 183.112 69.3402C182.984 69.4488 182.851 69.5574 182.722 69.6558C182.707 69.6714 182.69 69.685 182.671 69.6965C182.556 69.7915 182.444 69.8798 182.329 69.968C182.189 70.08 182.05 70.1852 181.908 70.2904C181.236 70.7994 180.546 71.2802 179.838 71.7326C179.733 71.8039 179.621 71.8752 179.512 71.943C179.448 71.9838 179.383 72.0245 179.322 72.0584C179.064 72.2179 178.806 72.374 178.548 72.5233C178.29 72.676 178.026 72.822 177.764 72.9645C177.205 73.2699 176.651 73.5889 176.112 73.9215C175.84 74.0911 175.569 74.2608 175.301 74.4339C174.235 75.1262 173.209 75.8671 172.223 76.6567C171.237 77.4467 170.291 78.286 169.39 79.1713C169.278 79.2799 169.166 79.3918 169.054 79.5072C168.83 79.7278 168.612 79.9518 168.405 80.1758C168.073 80.5185 167.754 80.8714 167.438 81.2278C165.774 83.116 164.301 85.1644 163.04 87.3429C162.407 88.4307 161.832 89.551 161.317 90.6991C160.926 91.5577 160.57 92.4366 160.248 93.3257C160.034 93.9196 159.834 94.5191 159.647 95.1243C159.555 95.4263 159.467 95.7317 159.382 96.0371C159.094 97.0722 158.853 98.1174 158.656 99.166C158.497 100.008 158.368 100.85 158.269 101.694C158.218 102.118 158.178 102.543 158.14 102.963C158.053 103.998 158.008 105.033 158.006 106.069C158 109.178 158.378 112.276 159.131 115.292C159.297 115.957 159.482 116.619 159.684 117.277C159.786 117.606 159.895 117.932 160.003 118.258C160.278 119.072 160.582 119.879 160.916 120.678C161.116 121.156 161.327 121.631 161.547 122.103C162.949 125.102 164.738 127.904 166.868 130.437C167.218 130.855 167.579 131.265 167.951 131.669C167.954 131.669 167.951 131.673 167.951 131.673C168.874 132.68 169.852 133.636 170.879 134.537H170.883C171.293 134.9 171.711 135.252 172.135 135.592C172.138 135.589 172.138 135.592 172.138 135.592C172.566 135.938 172.997 136.271 173.438 136.593C173.658 136.753 173.882 136.912 174.11 137.072C174.554 137.387 175.008 137.692 175.471 137.985H175.474C175.935 138.283 176.404 138.568 176.879 138.84C177.832 139.386 178.81 139.899 179.814 140.364L179.984 140.442L180.157 140.364C181.767 139.639 183.428 139.03 185.125 138.541C185.498 138.433 185.875 138.334 186.248 138.239C187.191 138.005 188.142 137.808 189.098 137.649C188.166 138.116 187.266 138.646 186.404 139.234C185.736 139.685 185.077 140.177 184.416 140.72C184.195 140.9 183.974 141.086 183.754 141.276L183.204 141.752L183.893 141.979C184.144 142.06 184.395 142.142 184.646 142.216C184.989 142.325 185.328 142.423 185.661 142.515C186.387 142.719 187.118 142.899 187.853 143.055C188.033 143.092 188.209 143.129 188.389 143.167C188.739 143.235 189.092 143.302 189.445 143.363C189.459 143.367 189.474 143.369 189.489 143.37C189.855 143.431 190.225 143.489 190.592 143.54C191.274 143.638 191.956 143.716 192.638 143.774C192.712 143.784 192.787 143.788 192.865 143.791C193.031 143.805 193.194 143.818 193.361 143.828C193.727 143.852 194.097 143.869 194.467 143.883C194.494 143.883 194.518 143.886 194.545 143.886C194.732 143.893 194.918 143.9 195.105 143.903C195.105 143.903 195.105 143.906 195.108 143.903C195.295 143.906 195.482 143.91 195.668 143.91H196.7C196.893 143.91 197.087 143.913 197.283 143.913C197.555 143.913 197.83 143.917 198.101 143.92C198.173 143.92 198.247 143.923 198.322 143.923C198.756 143.93 199.191 143.94 199.625 143.951C199.652 143.951 199.679 143.954 199.706 143.954C200.141 143.968 200.575 143.981 201.009 144.001C201.104 144.005 201.199 144.008 201.298 144.015C201.715 144.032 202.133 144.052 202.55 144.076C202.669 144.083 202.791 144.093 202.913 144.1C203.229 144.117 203.548 144.137 203.863 144.161C204.05 144.171 204.233 144.185 204.42 144.202C205.173 144.259 205.923 144.324 206.676 144.398C206.928 144.419 207.179 144.446 207.43 144.473C208.102 144.544 208.776 144.622 209.452 144.707C209.754 144.741 210.056 144.782 210.358 144.823C210.392 144.826 210.426 144.829 210.46 144.836C210.833 144.887 211.203 144.938 211.577 144.992C211.821 145.026 212.065 145.064 212.31 145.101C212.561 145.138 212.812 145.176 213.063 145.22C213.199 145.24 213.334 145.264 213.473 145.288C213.799 145.338 214.128 145.393 214.458 145.454C214.487 145.457 214.517 145.461 214.546 145.467C215.245 145.59 215.947 145.719 216.646 145.858C217.057 145.936 217.464 146.017 217.871 146.102C218.19 146.167 218.509 146.234 218.828 146.302C218.883 146.312 218.937 146.326 218.991 146.34C219.003 146.343 219.016 146.345 219.028 146.346C219.51 146.452 219.996 146.56 220.477 146.676C222.15 147.062 223.821 147.492 225.49 147.965C225.873 148.07 226.256 148.182 226.64 148.294C226.803 148.342 226.962 148.389 227.122 148.437C227.454 148.535 227.784 148.634 228.116 148.739C228.408 148.827 228.703 148.919 228.995 149.014C229.178 149.071 229.361 149.129 229.545 149.19C229.83 149.278 230.115 149.37 230.396 149.468C230.637 149.543 230.875 149.621 231.112 149.706C231.452 149.818 231.795 149.933 232.134 150.056C232.232 150.089 232.334 150.123 232.432 150.161C232.846 150.303 233.26 150.449 233.674 150.602C234.078 150.748 234.482 150.897 234.883 151.046C235.161 151.152 235.439 151.253 235.714 151.362C236.023 151.481 236.332 151.6 236.637 151.722C237.078 151.895 237.523 152.071 237.964 152.251C238.371 152.414 238.775 152.58 239.182 152.753C239.257 152.784 239.335 152.814 239.409 152.848C239.762 152.994 240.115 153.147 240.465 153.3C240.692 153.395 240.916 153.493 241.14 153.592C242.117 154.019 243.093 154.461 244.069 154.918H244.072C244.683 155.207 245.304 155.482 245.928 155.743C246.074 155.804 246.22 155.865 246.369 155.923C246.617 156.028 246.868 156.127 247.119 156.228C247.282 156.293 247.445 156.357 247.611 156.418C247.852 156.513 248.097 156.605 248.341 156.693C248.599 156.788 248.853 156.883 249.115 156.972C249.206 157.006 249.298 157.036 249.393 157.07C249.695 157.172 249.997 157.274 250.302 157.372C250.333 157.382 250.363 157.392 250.397 157.403C250.716 157.504 251.035 157.606 251.358 157.701C251.383 157.711 251.409 157.719 251.436 157.725C251.782 157.83 252.135 157.932 252.484 158.03C253 158.173 253.519 158.309 254.038 158.434C254.133 158.458 254.228 158.482 254.323 158.502C254.602 158.57 254.877 158.634 255.155 158.695C255.45 158.763 255.749 158.824 256.044 158.886C256.343 158.947 256.641 159.008 256.936 159.062C257.096 159.093 257.255 159.123 257.411 159.15L257.829 159.221C258.117 159.272 258.406 159.317 258.698 159.364C258.706 159.364 258.714 159.365 258.721 159.367C259.051 159.418 259.376 159.466 259.705 159.507C260.021 159.551 260.337 159.588 260.652 159.625C260.717 159.632 260.785 159.639 260.852 159.646C261.114 159.676 261.375 159.707 261.636 159.731C261.711 159.737 261.786 159.744 261.86 159.751C262.118 159.775 262.376 159.798 262.634 159.815C262.686 159.822 262.738 159.826 262.79 159.826C263.021 159.846 263.252 159.863 263.482 159.873C263.645 159.887 263.805 159.893 263.968 159.904C264.052 159.907 264.134 159.91 264.219 159.914C264.443 159.927 264.667 159.934 264.894 159.941C265.169 159.951 265.444 159.958 265.715 159.965C266.044 159.971 266.377 159.975 266.706 159.975H266.713C267.035 159.975 267.361 159.971 267.683 159.965H267.806L268.162 159.954C268.345 159.951 268.528 159.944 268.708 159.938C269.054 159.924 269.397 159.907 269.74 159.887C269.876 159.88 270.015 159.87 270.15 159.863C270.212 159.859 270.276 159.853 270.337 159.849C270.551 159.836 270.761 159.822 270.975 159.805C271.196 159.788 271.42 159.768 271.64 159.744C271.925 159.717 272.21 159.686 272.495 159.656C272.719 159.632 272.943 159.605 273.164 159.578C273.193 159.575 273.223 159.571 273.252 159.564C273.466 159.54 273.68 159.513 273.89 159.483C274.141 159.449 274.389 159.412 274.637 159.374C274.664 159.371 274.687 159.367 274.715 159.364C275.142 159.296 275.573 159.228 276.004 159.15C276.455 159.069 276.907 158.981 277.355 158.889C277.521 158.855 277.684 158.818 277.85 158.784C277.942 158.763 278.037 158.746 278.125 158.726C278.264 158.696 278.4 158.665 278.536 158.631C278.559 158.628 278.587 158.621 278.61 158.617C278.8 158.577 278.987 158.529 279.177 158.482C279.557 158.39 279.93 158.295 280.304 158.193C280.47 158.153 280.636 158.108 280.796 158.064C280.843 158.051 280.891 158.037 280.935 158.024C281.624 157.83 282.307 157.625 282.984 157.409C283.283 157.314 283.578 157.216 283.873 157.111C284.508 156.894 285.137 156.665 285.76 156.425C285.927 156.364 286.093 156.296 286.259 156.232C286.503 156.133 286.748 156.035 286.989 155.937C287.206 155.845 287.423 155.753 287.644 155.658C287.752 155.614 287.861 155.567 287.969 155.519C288.295 155.377 288.621 155.231 288.943 155.085C289.16 154.983 289.374 154.885 289.588 154.783C289.927 154.62 290.263 154.454 290.599 154.287C290.684 154.243 290.766 154.199 290.847 154.158C291.061 154.05 291.275 153.938 291.492 153.829C291.834 153.646 292.177 153.463 292.516 153.273C292.632 153.212 292.744 153.147 292.859 153.083C293.233 152.872 293.602 152.658 293.969 152.441C294.78 151.956 295.58 151.449 296.368 150.921C296.565 150.792 296.762 150.656 296.955 150.524C297.322 150.273 297.681 150.015 298.041 149.757C298.078 149.73 298.112 149.703 298.15 149.679C298.329 149.547 298.509 149.414 298.689 149.278C299.062 148.997 299.432 148.712 299.802 148.42C299.809 148.416 299.819 148.406 299.829 148.4C299.996 148.267 300.162 148.135 300.325 148.002C300.83 147.592 301.329 147.174 301.818 146.743C302.059 146.536 302.296 146.323 302.53 146.109C302.707 145.949 302.883 145.79 303.056 145.627C303.406 145.298 303.749 144.972 304.088 144.639C304.258 144.477 304.424 144.307 304.594 144.137C304.76 143.968 304.93 143.798 305.096 143.625C305.154 143.567 305.211 143.506 305.269 143.445C305.439 143.265 305.608 143.082 305.778 142.902C305.924 142.746 306.066 142.583 306.212 142.42C306.457 142.149 306.704 141.877 306.945 141.602C306.958 141.587 306.972 141.572 306.986 141.558C307 141.541 307.013 141.528 307.023 141.514H307.02C311.952 135.81 315.617 129.123 317.772 121.897C319.927 114.67 320.522 107.068 319.519 99.5945C318.516 92.1205 315.937 84.9448 311.953 78.5422C307.969 72.1396 302.671 66.6561 296.409 62.4547L296.409 62.4547Z" fill="#FFCF62"/>
<g opacity="0.15">
<path opacity="0.15" d="M227.723 22.4083C228.4 24.8382 229.417 27.1598 230.746 29.3039C228.522 27.3932 226.534 25.2229 224.827 22.8395C225.786 22.658 226.751 22.5143 227.723 22.4083Z" fill="black"/>
<path opacity="0.15" d="M194.611 59.9873C192.099 61.3581 189.751 63.0088 187.611 64.908C191.224 60.6348 193.865 55.6268 195.351 50.2312C195.369 50.1663 195.387 50.1011 195.404 50.0362L195.455 49.8525C197.24 43.4128 200.703 37.5627 205.491 32.9006L205.867 32.5338L206.132 32.9871C207.6 35.4826 209.356 37.7967 211.365 39.8816C208.287 48.567 202.298 55.7956 194.611 59.9873Z" fill="black"/>
<path opacity="0.15" d="M212.3 36.8722L212.25 37.0558C212.232 37.1207 212.214 37.186 212.196 37.2508C212.097 37.6079 211.992 37.9623 211.883 38.3152C210.81 35.5347 210.056 32.641 209.636 29.6901L209.597 29.4397L209.802 29.2926C212.385 27.437 215.189 25.9124 218.151 24.7543C215.492 28.4113 213.51 32.5156 212.3 36.8722Z" fill="black"/>
<path opacity="0.15" d="M177.766 72.9676C179.988 71.751 182.069 70.2906 183.968 68.6135C180.174 73.0314 177.454 78.268 176.022 83.913C174.589 89.5579 174.484 95.4578 175.713 101.15C176.942 106.843 179.473 112.174 183.107 116.725C186.74 121.276 191.379 124.923 196.658 127.382L196.829 127.461L197.001 127.384C199.852 126.095 202.859 125.182 205.945 124.668C204.019 125.649 202.223 126.868 200.6 128.296L200.051 128.771L200.74 128.998C201.334 129.195 201.929 129.376 202.507 129.536C205.903 130.482 209.414 130.952 212.939 130.932C228.957 130.83 245.099 134.533 260.916 141.939C263.629 143.207 266.442 144.247 269.328 145.048C281.902 148.549 295.326 147.29 307.03 141.511C300.431 149.142 291.803 154.745 282.148 157.669C272.492 160.593 262.206 160.717 252.482 158.028C249.597 157.227 246.783 156.187 244.071 154.919C228.253 147.513 212.111 143.81 196.094 143.913C192.569 143.932 189.058 143.463 185.662 142.517C185.084 142.356 184.489 142.175 183.894 141.979L183.206 141.751L183.755 141.277C185.378 139.848 187.173 138.629 189.1 137.648C186.013 138.163 183.007 139.076 180.155 140.364L179.984 140.441L179.812 140.362C173.473 137.411 168.078 132.757 164.229 126.918C160.381 121.079 158.231 114.286 158.018 107.296C157.806 100.306 159.54 93.3946 163.027 87.333C166.514 81.2713 171.617 76.2979 177.766 72.9676L177.766 72.9676Z" fill="black"/>
</g>
</g>
<defs>
<clipPath id="clip0_30_851">
<rect width="320" height="270" fill="white"/>
</clipPath>
</defs>
</svg>
